<?xml version="1.0" encoding="utf-8"?>
<!-- Generator: Adobe Illustrator 23.0.4, SVG Export Plug-In . SVG Version: 6.00 Build 0)  -->
<!DOCTYPE svg PUBLIC "-//W3C//DTD SVG 1.1//EN" "http://www.w3.org/Graphics/SVG/1.1/DTD/svg11.dtd" [
	<!ENTITY ns_extend "http://ns.adobe.com/Extensibility/1.0/">
	<!ENTITY ns_ai "http://ns.adobe.com/AdobeIllustrator/10.0/">
	<!ENTITY ns_graphs "http://ns.adobe.com/Graphs/1.0/">
	<!ENTITY ns_vars "http://ns.adobe.com/Variables/1.0/">
	<!ENTITY ns_imrep "http://ns.adobe.com/ImageReplacement/1.0/">
	<!ENTITY ns_sfw "http://ns.adobe.com/SaveForWeb/1.0/">
	<!ENTITY ns_custom "http://ns.adobe.com/GenericCustomNamespace/1.0/">
	<!ENTITY ns_adobe_xpath "http://ns.adobe.com/XPath/1.0/">
]>
<svg version="1.1" id="Layer_1" xmlns:x="&ns_extend;" xmlns:i="&ns_ai;" xmlns:graph="&ns_graphs;"
	 xmlns="http://www.w3.org/2000/svg" xmlns:xlink="http://www.w3.org/1999/xlink" x="0px" y="0px" viewBox="0 0 1077.3 686"
	 style="enable-background:new 0 0 1077.3 686;" xml:space="preserve">
<style type="text/css">
	.st0{fill:#25303D;}
	.st1{fill:none;}
	.st2{fill:#2DA5DD;}
	.st3{fill:#FDC23C;}
	.st4{fill:#E52B33;}
</style>
<metadata>
	<sfw  xmlns="&ns_sfw;">
		<slices></slices>
		<sliceSourceBounds  bottomLeftOrigin="true" height="686" width="1077.3" x="-323" y="-93.6"></sliceSourceBounds>
	</sfw>
</metadata>
<g>
	<path class="st0" d="M405,614.7c-14.1-3.3-27.9-4.5-27.9-13.8c0-7.5,10.2-8.7,15.6-8.7c8.4,0,15.9,2.4,17.4,11.4h19.8
		c-2.4-19.2-18.3-26.4-36-26.4c-15.6,0-36,5.7-36,24.6c0,17.4,13.5,22.5,27.6,25.5s27.6,4.2,28.2,14.4c0.6,10.2-12,11.4-19.2,11.4
		c-9.9,0-18-3.9-19.5-14.1h-18.9c0.6,19.8,16.8,29.1,38.1,29.1c17.7,0,38.4-7.5,38.4-27.9C432.9,622.8,418.8,617.7,405,614.7z"/>
	<path class="st0" d="M62.7,494.4c-1.5-10.5-9-16.2-19.8-16.2c-9.9,0-23.7,5.1-23.7,31.2c0,14.4,6.3,29.4,22.8,29.4
		c11.1,0,18.6-7.2,20.4-19.5h18.9c-3.6,22.2-17.4,34.5-39.6,34.5c-27,0-41.7-19.2-41.7-44.4c0-26.1,14.1-46.2,42.6-46.2
		c20.1,0,36.9,9.9,38.7,31.2H62.7z"/>
	<path class="st0" d="M88.2,508.8c0-26.4,15.9-45.3,43.5-45.3s43.5,18.9,43.5,45.3s-15.9,45.6-43.5,45.6S88.2,535.2,88.2,508.8z
		 M156.3,508.8c0-15-7.5-30.3-24.6-30.3c-17.1,0-24.6,15.6-24.6,30.3c0,14.7,7.5,30.6,24.6,30.6
		C148.8,539.4,156.3,523.8,156.3,508.8z"/>
	<path class="st0" d="M182.1,465.6h18v12h0.6c5.4-9.3,15.6-15,26.4-14.4c10.5,0,20.4,4.5,24.3,14.4c6-9.3,16.2-14.7,27-14.4
		c18,0,28.8,8.1,28.8,29.1v59.4h-18.9v-50.4c0-13.8-0.9-23.1-15.6-23.1c-12.9,0-18.3,8.4-18.3,23.1v50.4h-18.9v-55.2
		c0-11.7-3.6-18-15-18c-9.9,0-18.9,8.1-18.9,22.2v51h-18.9L182.1,465.6z"/>
	<path class="st0" d="M317.7,465.6h18v12h0.6c5.4-9.3,15.6-15,26.4-14.4c10.5,0,20.4,4.5,24.3,14.4c6-9.3,16.2-14.7,27-14.4
		c18.3,0,28.8,8.1,28.8,29.1v59.4h-18.9v-50.4c0-13.8-0.9-23.1-15.6-23.1c-12.9,0-18.3,8.4-18.3,23.1v50.4h-19.2v-55.2
		c0-11.7-3.6-18-15.3-18c-9.9,0-18.9,8.1-18.9,22.2v51h-18.9L317.7,465.6L317.7,465.6z"/>
	<path class="st0" d="M450,508.8c0-26.4,15.9-45.3,43.5-45.3c27.6,0,43.5,18.9,43.5,45.3s-15.9,45.6-43.5,45.6
		C465.9,554.4,450,535.2,450,508.8z M517.8,508.8c0-15-7.5-30.3-24.6-30.3c-17.1,0-24.6,15.6-24.6,30.3c0,14.7,7.5,30.6,24.6,30.6
		C510.3,539.4,517.8,523.8,517.8,508.8z"/>
	<path class="st0" d="M531.8,621.1c0-26.4,15.9-45.3,43.5-45.3s43.5,18.9,43.5,45.3s-15.9,45.6-43.5,45.6S531.8,647.5,531.8,621.1z
		 M599.6,621.1c0-15-7.5-30.3-24.6-30.3c-17.1,0-24.6,15.6-24.6,30.3s7.5,30.6,24.6,30.6C592.1,651.7,599.6,636.1,599.6,621.1z"/>
	<path class="st0" d="M623.1,465.6h20.1l16.8,64.2h0.3l16.2-64.2h19.2l15.6,64.2h0.3l17.4-64.2h19.5l-27,86.1H702l-15.9-63.9h-0.3
		l-15.9,63.9h-20.1L623.1,465.6z"/>
	<path class="st0" d="M765,513.6c0,13.5,7.2,25.5,23.1,25.5c11.1,0,17.7-4.8,21-14.4h18c-4.2,18.9-20.1,29.4-39,29.4
		c-27,0-42.3-18.9-42.3-45.3c0-24.6,15.9-45.6,41.7-45.6c27.3,0,43.8,24.6,40.5,50.4H765z M809.1,501.3c-0.6-12-8.7-22.8-21.6-22.8
		c-12.9,0-22.2,9.9-22.5,22.8H809.1z"/>
	<path class="st0" d="M923.1,443.1H942V552h-18.9V443.1z"/>
	<path class="st0" d="M954.6,465.6v-22.5h18.9v22.5h17.4v14.1h-17.1v45.9c0,7.8,0.6,11.7,9,11.7c2.7,0,5.4,0,8.1-0.6v14.7
		c-4.2,0.3-8.1,0.9-12.3,0.9c-19.8,0-23.4-7.5-23.7-21.9L954.6,465.6L954.6,465.6z"/>
	<path class="st0" d="M685.4,581.4v-17.7h18.9v17.7h17.4v14.1h-17.1v45.9c0,7.8,0.6,11.7,9,11.7c2.7,0,5.4,0,8.1-0.6v14.7
		c-4.2,0.3-8.1,0.9-12.3,0.9c-19.8,0-23.4-7.5-23.7-21.9L685.4,581.4L685.4,581.4z"/>
	<path class="st0" d="M1001.7,443.1h18.9V477h0.3c5.7-8.7,15.3-13.8,25.8-13.5c18.6,0,30.6,9.9,30.6,29.4V552h-18.9v-54
		c-0.3-13.5-5.7-19.2-16.8-19.2c-12.6,0-20.7,9.9-20.7,22.5V552H1002L1001.7,443.1z"/>
	<path class="st0" d="M910.8,487.5c-0.6-17.7-18-24.3-34.5-24.3c-18.9,0-37.8,6.6-39.3,28.5h18.9c0.9-9.3,8.4-13.5,18.9-13.5
		c7.5,0,17.7,1.8,17.7,11.7c0,11.1-12,9.6-25.8,12.3c-15.9,1.8-33,5.4-33,26.7c0,16.8,14.1,25.2,29.4,25.2
		c10.2,0,22.2-3.3,29.7-10.5c1.5,7.8,6.9,8.4,14.7,8.4c0.9,0,1.8,0,2.7-0.3L910.8,487.5z M891.9,522.9c0,12-12.9,16.2-21.3,16.2
		c-6.6,0-17.4-2.4-17.4-11.1c0-9.9,7.2-12.9,15.6-14.4c8.4-1.5,17.4-1.5,23.4-5.1L891.9,522.9z"/>
	<g>
		<path class="st0" d="M589.2,463.2c-10.8,0-21.3,5.7-26.7,15.3l-0.3-0.3v-12.6h-18l0.3,86.1h18.9V501c0-12.6,8.1-22.5,20.7-22.5
			c11.1,0,16.5,5.7,16.8,19.2v54h18.9v-59.1C619.8,473.1,607.8,463.2,589.2,463.2z"/>
	</g>
	<path class="st0" d="M676,595.8c-20.6,0-30.2,10.3-30.2,21.9v48h-19.2l0.3-86.4h18v17.7h0.6c5-12.1,15.1-18.1,26.4-17.8l4.1,0.2
		V595.8z"/>
	<g>
		<path class="st1" d="M482.2,650.7c15.9,0,22.8-14.1,22.8-28.5c0-14.4-6.3-30-22.8-30c-16.5,0-23.1,13.5-23.1,28.5
			C459.1,635.1,465.4,650.7,482.2,650.7z"/>
		<path class="st0" d="M459.4,650.4h0.3c5.1,9.3,15,15.3,25.8,15.3c27.3,0,38.7-20.7,38.7-45.3c0-23.1-14.4-43.2-39-43.2
			c-10.8,0-20.7,4.5-25.5,14.1h-0.3v-12h-18.9L440.2,686h19.2L459.4,650.4z M482.2,592.2c16.5,0,22.8,15.6,22.8,30
			c0,14.4-6.9,28.5-22.8,28.5c-16.8,0-23.1-15.6-23.1-30C459.1,605.7,465.7,592.2,482.2,592.2z"/>
	</g>
</g>
<g>
	<path class="st2" d="M782.5,1c-21.1,59.8-42.1,119.1-63,178.4c0.9,0.6,0.8,0.6,1.7,1.1c4.8-4.3,110.5-99.9,158.6-143.3
		C899.5,19.4,923,9,948.9,3.4c11.4-2.5,22.8-3.8,34.4-3.2c1.2,0.1,2.4,0.2,3.6,0.4c0.6,0.1,1,0.2,1.7,0.5c0.4,0.2,0.6,0.6,0.4,1
		c-1,1.7-2.5,2.6-3.8,3.8C939,47.5,641.8,316.2,620.7,335c-1.7,1.5-3.4,4.6-5.8,3.2c-2.6-1.6-0.1-4.4,0.6-6.4
		C650.2,233.2,685,134.6,720,36.1c7.2-20.2,23.4-30.2,43.4-35c5.9-1.4,11.8-0.6,18.4-0.9C782.2,0.2,782.6,0.6,782.5,1z"/>
	<path class="st3" d="M602.5,24c-4.6,5.9-6.5,13-8.9,20c-17.8,51.2-53.9,155.4-54.6,157.3c-0.6-1.8-36.9-106.1-54.6-157.3
		c-2.4-6.9-4.3-14.1-8.9-20C461.4,5.8,442.2-0.6,419.4,0.2c0.6,1.9,97,280.6,116.7,337.1c0.6,1.7,0.6,4.4,2.7,4.5c0.1,0,0.2,0,0.2,0
		c0.1,0,0.2,0,0.2,0c2.1-0.1,2.2-2.8,2.7-4.5c19.6-56.6,116-335.2,116.6-337.1C635.9-0.6,616.7,5.8,602.5,24z"/>
	<path class="st4" d="M294.9,1c21.1,59.8,42.1,119.1,63,178.4c-0.9,0.6-0.8,0.6-1.7,1.1c-4.8-4.3-110.5-99.9-158.6-143.3
		C177.8,19.5,154.3,9,128.5,3.4C117.1,1,105.7-0.4,94.1,0.2c-1.2,0.1-2.4,0.2-3.6,0.4c-0.6,0.1-1,0.2-1.7,0.5
		c-0.4,0.2-0.6,0.6-0.4,1c1,1.7,2.5,2.6,3.8,3.8c46.2,41.8,343.4,310.4,364.5,329.3c1.7,1.5,3.4,4.6,5.8,3.2
		c2.6-1.6,0.1-4.4-0.6-6.4C427,233.3,392.3,134.6,357.3,36.2C350.1,15.9,333.9,5.9,313.9,1c-5.9-1.4-11.8-0.6-18.4-0.9
		C295,0.2,294.7,0.6,294.9,1z"/>
</g>
</svg>
